<svg aria-roledescription="er" role="graphics-document document" viewBox="0 0 620.0151977539062 669" style="max-width: 620.0151977539062px;" xmlns="http://www.w3.org/2000/svg" width="100%" id="export-svg"><style xmlns="http://www.w3.org/1999/xhtml">@import url("https://cdnjs.cloudflare.com/ajax/libs/font-awesome/6.2.0/css/all.min.css"); p {margin: 0;}</style><style>#export-svg{font-family:"trebuchet ms",verdana,arial,sans-serif;font-size:14px;fill:#333;}#export-svg .error-icon{fill:#ffffff;}#export-svg .error-text{fill:#000000;stroke:#000000;}#export-svg .edge-thickness-normal{stroke-width:1px;}#export-svg .edge-thickness-thick{stroke-width:3.5px;}#export-svg .edge-pattern-solid{stroke-dasharray:0;}#export-svg .edge-thickness-invisible{stroke-width:0;fill:none;}#export-svg .edge-pattern-dashed{stroke-dasharray:3;}#export-svg .edge-pattern-dotted{stroke-dasharray:2;}#export-svg .marker{fill:#000000;stroke:#000000;}#export-svg .marker.cross{stroke:#000000;}#export-svg svg{font-family:"trebuchet ms",verdana,arial,sans-serif;font-size:14px;}#export-svg p{margin:0;}#export-svg .entityBox{fill:#ffffff;stroke:#000000;}#export-svg .attributeBoxOdd{fill:#ffffff;stroke:#000000;}#export-svg .attributeBoxEven{fill:#f2f2f2;stroke:#000000;}#export-svg .relationshipLabelBox{fill:#ffffff;opacity:0.7;background-color:#ffffff;}#export-svg .relationshipLabelBox rect{opacity:0.5;}#export-svg .relationshipLine{stroke:#000000;}#export-svg .entityTitleText{text-anchor:middle;font-size:18px;fill:#333;}#export-svg #MD_PARENT_START{fill:#f5f5f5!important;stroke:#000000!important;stroke-width:1;}#export-svg #MD_PARENT_END{fill:#f5f5f5!important;stroke:#000000!important;stroke-width:1;}#export-svg .node .neo-node{stroke:#000000;}#export-svg [data-look="neo"].node rect,#export-svg [data-look="neo"].cluster rect,#export-svg [data-look="neo"].node polygon{stroke:url(#export-svg-gradient);filter:drop-shadow( 0px 1px 2px rgba(0, 0, 0, 0.25));}#export-svg [data-look="neo"].node rect,#export-svg [data-look="neo"].node polygon,#export-svg [data-look="neo"].node path{stroke:url(#export-svg-gradient);filter:drop-shadow( 0px 1px 2px rgba(0, 0, 0, 0.25));}#export-svg [data-look="neo"].node .neo-line path{stroke:hsl(0, 0%, 70%);filter:none;}#export-svg [data-look="neo"].node circle{stroke:url(#export-svg-gradient);filter:drop-shadow( 0px 1px 2px rgba(0, 0, 0, 0.25));}#export-svg [data-look="neo"].node circle .state-start{fill:#000000;}#export-svg [data-look="neo"].statediagram-cluster rect{fill:#ffffff;stroke:url(#export-svg-gradient);stroke-width:1px;}#export-svg [data-look="neo"].icon-shape .icon{fill:url(#export-svg-gradient);filter:drop-shadow( 0px 1px 2px rgba(0, 0, 0, 0.25));}#export-svg [data-look="neo"].icon-shape .icon-neo path{stroke:url(#export-svg-gradient);filter:drop-shadow( 0px 1px 2px rgba(0, 0, 0, 0.25));}#export-svg :root{--mermaid-font-family:"trebuchet ms",verdana,arial,sans-serif;}</style><g/><defs><marker orient="auto" markerHeight="240" markerWidth="190" refY="7" refX="0" id="MD_PARENT_START"><path d="M 18,7 L9,13 L1,7 L9,1 Z"/></marker></defs><defs><marker orient="auto" markerHeight="28" markerWidth="20" refY="7" refX="19" id="MD_PARENT_END"><path d="M 18,7 L9,13 L1,7 L9,1 Z"/></marker></defs><defs><marker orient="auto" markerHeight="18" markerWidth="18" refY="9" refX="0" id="ONLY_ONE_START"><path d="M9,0 L9,18 M15,0 L15,18" fill="none" stroke="gray"/></marker></defs><defs><marker orient="auto" markerHeight="18" markerWidth="18" refY="9" refX="18" id="ONLY_ONE_END"><path d="M3,0 L3,18 M9,0 L9,18" fill="none" stroke="gray"/></marker></defs><defs><marker orient="auto" markerHeight="18" markerWidth="30" refY="9" refX="0" id="ZERO_OR_ONE_START"><circle r="6" cy="9" cx="21" fill="white" stroke="gray"/><path d="M9,0 L9,18" fill="none" stroke="gray"/></marker></defs><defs><marker orient="auto" markerHeight="18" markerWidth="30" refY="9" refX="30" id="ZERO_OR_ONE_END"><circle r="6" cy="9" cx="9" fill="white" stroke="gray"/><path d="M21,0 L21,18" fill="none" stroke="gray"/></marker></defs><defs><marker orient="auto" markerHeight="36" markerWidth="45" refY="18" refX="18" id="ONE_OR_MORE_START"><path d="M0,18 Q 18,0 36,18 Q 18,36 0,18 M42,9 L42,27" fill="none" stroke="gray"/></marker></defs><defs><marker orient="auto" markerHeight="36" markerWidth="45" refY="18" refX="27" id="ONE_OR_MORE_END"><path d="M3,9 L3,27 M9,18 Q27,0 45,18 Q27,36 9,18" fill="none" stroke="gray"/></marker></defs><defs><marker orient="auto" markerHeight="36" markerWidth="57" refY="18" refX="18" id="ZERO_OR_MORE_START"><circle r="6" cy="18" cx="48" fill="white" stroke="gray"/><path d="M0,18 Q18,0 36,18 Q18,36 0,18" fill="none" stroke="gray"/></marker></defs><defs><marker orient="auto" markerHeight="36" markerWidth="57" refY="18" refX="39" id="ZERO_OR_MORE_END"><circle r="6" cy="18" cx="9" fill="white" stroke="gray"/><path d="M21,18 Q39,0 57,18 Q39,36 21,18" fill="none" stroke="gray"/></marker></defs><path marker-start="url(#ONE_OR_MORE_START)" marker-end="url(#ONE_OR_MORE_END)" stroke-dasharray="8,8" style="stroke: gray; fill: none;" d="M240.381,135.771L206.854,153.309C173.327,170.847,106.273,205.924,82.442,233.545C58.61,261.167,78.001,281.333,87.697,291.417L97.392,301.5" class="er relationshipLine"/><path marker-start="url(#ZERO_OR_MORE_START)" marker-end="url(#ONLY_ONE_END)" stroke-dasharray="8,8" style="stroke: gray; fill: none;" d="M270.573,180.5L266.852,190.583C263.131,200.667,255.69,220.833,262.32,242.75C268.95,264.667,289.652,288.333,300.003,300.167L310.353,312" class="er relationshipLine"/><path marker-start="url(#ZERO_OR_MORE_START)" marker-end="url(#ONLY_ONE_END)" stroke-dasharray="8,8" style="stroke: gray; fill: none;" d="M356.116,156.85L371.921,170.875C387.726,184.9,419.337,212.95,442.648,235.308C465.958,257.667,480.97,274.333,488.475,282.667L495.981,291" class="er relationshipLine"/><path marker-start="url(#ZERO_OR_MORE_START)" marker-end="url(#ONE_OR_MORE_END)" stroke-dasharray="8,8" style="stroke: gray; fill: none;" d="M549.305,291L550.029,282.667C550.752,274.333,552.199,257.667,520.001,231.867C487.803,206.067,421.959,171.134,389.037,153.668L356.116,136.201" class="er relationshipLine"/><path marker-start="url(#ZERO_OR_MORE_START)" marker-end="url(#ONE_OR_MORE_END)" stroke-dasharray="8,8" style="stroke: gray; fill: none;" d="M342.941,312L344.275,300.167C345.61,288.333,348.278,264.667,345.691,242.75C343.104,220.833,335.261,200.667,331.339,190.583L327.417,180.5" class="er relationshipLine"/><path marker-start="url(#ZERO_OR_MORE_START)" marker-end="url(#ONLY_ONE_END)" stroke-dasharray="8,8" style="stroke: gray; fill: none;" d="M97.392,388.5L87.697,398.583C78.001,408.667,58.61,428.833,57.14,449.198C55.669,469.563,72.12,490.125,80.345,500.407L88.57,510.688" class="er relationshipLine"/><path marker-start="url(#ZERO_OR_MORE_START)" marker-end="url(#ONLY_ONE_END)" stroke-dasharray="8,8" style="stroke: gray; fill: none;" d="M142.996,301.5L143.871,291.417C144.747,281.333,146.497,261.167,162.728,237.212C178.959,213.258,209.67,185.516,225.025,171.645L240.381,157.774" class="er relationshipLine"/><path marker-start="url(#ZERO_OR_MORE_START)" marker-end="url(#ONE_OR_MORE_END)" stroke-dasharray="8,8" style="stroke: gray; fill: none;" d="M139.219,499L139.219,490.667C139.219,482.333,139.219,465.667,139.219,447.25C139.219,428.833,139.219,408.667,139.219,398.583L139.219,388.5" class="er relationshipLine"/><g transform="translate(20,20 )" id="entity-BaseEntityModel-4733c2f5-f86e-5713-bcb5-48cb7de87ba1"><rect height="171" width="120.380859375" y="0" x="0" class="er entityBox"/><text transform="translate(60.1904296875,12)" style="dominant-baseline: middle; text-anchor: middle; font-size: 12px;" y="0" x="0" id="text-entity-BaseEntityModel-4733c2f5-f86e-5713-bcb5-48cb7de87ba1" class="er entityLabel">BaseEntityModel</text><rect height="21" width="59.539947509765625" y="24" x="0" class="er attributeBoxOdd"/><text transform="translate(5,34.5)" style="dominant-baseline: middle; font-size: 10.2px;" y="0" x="0" id="text-entity-BaseEntityModel-4733c2f5-f86e-5713-bcb5-48cb7de87ba1-attr-1-type" class="er entityLabel">timestamp</text><rect height="21" width="60.840911865234375" y="24" x="59.539947509765625" class="er attributeBoxOdd"/><text transform="translate(64.53994750976562,34.5)" style="dominant-baseline: middle; font-size: 10.2px;" y="0" x="0" id="text-entity-BaseEntityModel-4733c2f5-f86e-5713-bcb5-48cb7de87ba1-attr-1-name" class="er entityLabel">createdAt</text><rect height="21" width="59.539947509765625" y="45" x="0" class="er attributeBoxEven"/><text transform="translate(5,55.5)" style="dominant-baseline: middle; font-size: 10.2px;" y="0" x="0" id="text-entity-BaseEntityModel-4733c2f5-f86e-5713-bcb5-48cb7de87ba1-attr-2-type" class="er entityLabel">timestamp</text><rect height="21" width="60.840911865234375" y="45" x="59.539947509765625" class="er attributeBoxEven"/><text transform="translate(64.53994750976562,55.5)" style="dominant-baseline: middle; font-size: 10.2px;" y="0" x="0" id="text-entity-BaseEntityModel-4733c2f5-f86e-5713-bcb5-48cb7de87ba1-attr-2-name" class="er entityLabel">updatedAt</text><rect height="21" width="59.539947509765625" y="66" x="0" class="er attributeBoxOdd"/><text transform="translate(5,76.5)" style="dominant-baseline: middle; font-size: 10.2px;" y="0" x="0" id="text-entity-BaseEntityModel-4733c2f5-f86e-5713-bcb5-48cb7de87ba1-attr-3-type" class="er entityLabel">timestamp</text><rect height="21" width="60.840911865234375" y="66" x="59.539947509765625" class="er attributeBoxOdd"/><text transform="translate(64.53994750976562,76.5)" style="dominant-baseline: middle; font-size: 10.2px;" y="0" x="0" id="text-entity-BaseEntityModel-4733c2f5-f86e-5713-bcb5-48cb7de87ba1-attr-3-name" class="er entityLabel">deletedAt</text><rect height="21" width="59.539947509765625" y="87" x="0" class="er attributeBoxEven"/><text transform="translate(5,97.5)" style="dominant-baseline: middle; font-size: 10.2px;" y="0" x="0" id="text-entity-BaseEntityModel-4733c2f5-f86e-5713-bcb5-48cb7de87ba1-attr-4-type" class="er entityLabel">string</text><rect height="21" width="60.840911865234375" y="87" x="59.539947509765625" class="er attributeBoxEven"/><text transform="translate(64.53994750976562,97.5)" style="dominant-baseline: middle; font-size: 10.2px;" y="0" x="0" id="text-entity-BaseEntityModel-4733c2f5-f86e-5713-bcb5-48cb7de87ba1-attr-4-name" class="er entityLabel">createdBy</text><rect height="21" width="59.539947509765625" y="108" x="0" class="er attributeBoxOdd"/><text transform="translate(5,118.5)" style="dominant-baseline: middle; font-size: 10.2px;" y="0" x="0" id="text-entity-BaseEntityModel-4733c2f5-f86e-5713-bcb5-48cb7de87ba1-attr-5-type" class="er entityLabel">string</text><rect height="21" width="60.840911865234375" y="108" x="59.539947509765625" class="er attributeBoxOdd"/><text transform="translate(64.53994750976562,118.5)" style="dominant-baseline: middle; font-size: 10.2px;" y="0" x="0" id="text-entity-BaseEntityModel-4733c2f5-f86e-5713-bcb5-48cb7de87ba1-attr-5-name" class="er entityLabel">updatedBy</text><rect height="21" width="59.539947509765625" y="129" x="0" class="er attributeBoxEven"/><text transform="translate(5,139.5)" style="dominant-baseline: middle; font-size: 10.2px;" y="0" x="0" id="text-entity-BaseEntityModel-4733c2f5-f86e-5713-bcb5-48cb7de87ba1-attr-6-type" class="er entityLabel">int</text><rect height="21" width="60.840911865234375" y="129" x="59.539947509765625" class="er attributeBoxEven"/><text transform="translate(64.53994750976562,139.5)" style="dominant-baseline: middle; font-size: 10.2px;" y="0" x="0" id="text-entity-BaseEntityModel-4733c2f5-f86e-5713-bcb5-48cb7de87ba1-attr-6-name" class="er entityLabel">version</text><rect height="21" width="59.539947509765625" y="150" x="0" class="er attributeBoxOdd"/><text transform="translate(5,160.5)" style="dominant-baseline: middle; font-size: 10.2px;" y="0" x="0" id="text-entity-BaseEntityModel-4733c2f5-f86e-5713-bcb5-48cb7de87ba1-attr-7-type" class="er entityLabel">int</text><rect height="21" width="60.840911865234375" y="150" x="59.539947509765625" class="er attributeBoxOdd"/><text transform="translate(64.53994750976562,160.5)" style="dominant-baseline: middle; font-size: 10.2px;" y="0" x="0" id="text-entity-BaseEntityModel-4733c2f5-f86e-5713-bcb5-48cb7de87ba1-attr-7-name" class="er entityLabel">status</text></g><g transform="translate(240.380859375,30.5 )" id="entity-MovieSession-80db062f-c0b6-5425-8ad9-f60df1a03917"><rect height="150" width="115.73472595214844" y="0" x="0" class="er entityBox"/><text transform="translate(57.86736297607422,12)" style="dominant-baseline: middle; text-anchor: middle; font-size: 12px;" y="0" x="0" id="text-entity-MovieSession-80db062f-c0b6-5425-8ad9-f60df1a03917" class="er entityLabel">MovieSession</text><rect height="21" width="45.61488342285156" y="24" x="0" class="er attributeBoxOdd"/><text transform="translate(5,34.5)" style="dominant-baseline: middle; font-size: 10.2px;" y="0" x="0" id="text-entity-MovieSession-80db062f-c0b6-5425-8ad9-f60df1a03917-attr-1-type" class="er entityLabel">uuid</text><rect height="21" width="70.11984252929688" y="24" x="45.61488342285156" class="er attributeBoxOdd"/><text transform="translate(50.61488342285156,34.5)" style="dominant-baseline: middle; font-size: 10.2px;" y="0" x="0" id="text-entity-MovieSession-80db062f-c0b6-5425-8ad9-f60df1a03917-attr-1-name" class="er entityLabel">id</text><rect height="21" width="45.61488342285156" y="45" x="0" class="er attributeBoxEven"/><text transform="translate(5,55.5)" style="dominant-baseline: middle; font-size: 10.2px;" y="0" x="0" id="text-entity-MovieSession-80db062f-c0b6-5425-8ad9-f60df1a03917-attr-2-type" class="er entityLabel">date</text><rect height="21" width="70.11984252929688" y="45" x="45.61488342285156" class="er attributeBoxEven"/><text transform="translate(50.61488342285156,55.5)" style="dominant-baseline: middle; font-size: 10.2px;" y="0" x="0" id="text-entity-MovieSession-80db062f-c0b6-5425-8ad9-f60df1a03917-attr-2-name" class="er entityLabel">date</text><rect height="21" width="45.61488342285156" y="66" x="0" class="er attributeBoxOdd"/><text transform="translate(5,76.5)" style="dominant-baseline: middle; font-size: 10.2px;" y="0" x="0" id="text-entity-MovieSession-80db062f-c0b6-5425-8ad9-f60df1a03917-attr-3-type" class="er entityLabel">varchar</text><rect height="21" width="70.11984252929688" y="66" x="45.61488342285156" class="er attributeBoxOdd"/><text transform="translate(50.61488342285156,76.5)" style="dominant-baseline: middle; font-size: 10.2px;" y="0" x="0" id="text-entity-MovieSession-80db062f-c0b6-5425-8ad9-f60df1a03917-attr-3-name" class="er entityLabel">time</text><rect height="21" width="45.61488342285156" y="87" x="0" class="er attributeBoxEven"/><text transform="translate(5,97.5)" style="dominant-baseline: middle; font-size: 10.2px;" y="0" x="0" id="text-entity-MovieSession-80db062f-c0b6-5425-8ad9-f60df1a03917-attr-4-type" class="er entityLabel">string</text><rect height="21" width="70.11984252929688" y="87" x="45.61488342285156" class="er attributeBoxEven"/><text transform="translate(50.61488342285156,97.5)" style="dominant-baseline: middle; font-size: 10.2px;" y="0" x="0" id="text-entity-MovieSession-80db062f-c0b6-5425-8ad9-f60df1a03917-attr-4-name" class="er entityLabel">movieId</text><rect height="21" width="45.61488342285156" y="108" x="0" class="er attributeBoxOdd"/><text transform="translate(5,118.5)" style="dominant-baseline: middle; font-size: 10.2px;" y="0" x="0" id="text-entity-MovieSession-80db062f-c0b6-5425-8ad9-f60df1a03917-attr-5-type" class="er entityLabel">int</text><rect height="21" width="70.11984252929688" y="108" x="45.61488342285156" class="er attributeBoxOdd"/><text transform="translate(50.61488342285156,118.5)" style="dominant-baseline: middle; font-size: 10.2px;" y="0" x="0" id="text-entity-MovieSession-80db062f-c0b6-5425-8ad9-f60df1a03917-attr-5-name" class="er entityLabel">roomNumber</text><rect height="21" width="45.61488342285156" y="129" x="0" class="er attributeBoxEven"/><text transform="translate(5,139.5)" style="dominant-baseline: middle; font-size: 10.2px;" y="0" x="0" id="text-entity-MovieSession-80db062f-c0b6-5425-8ad9-f60df1a03917-attr-6-type" class="er entityLabel">string</text><rect height="21" width="70.11984252929688" y="129" x="45.61488342285156" class="er attributeBoxEven"/><text transform="translate(50.61488342285156,139.5)" style="dominant-baseline: middle; font-size: 10.2px;" y="0" x="0" id="text-entity-MovieSession-80db062f-c0b6-5425-8ad9-f60df1a03917-attr-6-name" class="er entityLabel">deletedAt</text></g><g transform="translate(89.21932601928711,301.5 )" id="entity-Ticket-d7e8b329-0aaa-5985-99a1-9a1fad0790bd"><rect height="87" width="100" y="0" x="0" class="er entityBox"/><text transform="translate(50,12)" style="dominant-baseline: middle; text-anchor: middle; font-size: 12px;" y="0" x="0" id="text-entity-Ticket-d7e8b329-0aaa-5985-99a1-9a1fad0790bd" class="er entityLabel">Ticket</text><rect height="21" width="40.92559814453125" y="24" x="0" class="er attributeBoxOdd"/><text transform="translate(5,34.5)" style="dominant-baseline: middle; font-size: 10.2px;" y="0" x="0" id="text-entity-Ticket-d7e8b329-0aaa-5985-99a1-9a1fad0790bd-attr-1-type" class="er entityLabel">uuid</text><rect height="21" width="59.07440185546875" y="24" x="40.92559814453125" class="er attributeBoxOdd"/><text transform="translate(45.92559814453125,34.5)" style="dominant-baseline: middle; font-size: 10.2px;" y="0" x="0" id="text-entity-Ticket-d7e8b329-0aaa-5985-99a1-9a1fad0790bd-attr-1-name" class="er entityLabel">id</text><rect height="21" width="40.92559814453125" y="45" x="0" class="er attributeBoxEven"/><text transform="translate(5,55.5)" style="dominant-baseline: middle; font-size: 10.2px;" y="0" x="0" id="text-entity-Ticket-d7e8b329-0aaa-5985-99a1-9a1fad0790bd-attr-2-type" class="er entityLabel">string</text><rect height="21" width="59.07440185546875" y="45" x="40.92559814453125" class="er attributeBoxEven"/><text transform="translate(45.92559814453125,55.5)" style="dominant-baseline: middle; font-size: 10.2px;" y="0" x="0" id="text-entity-Ticket-d7e8b329-0aaa-5985-99a1-9a1fad0790bd-attr-2-name" class="er entityLabel">sessionId</text><rect height="21" width="40.92559814453125" y="66" x="0" class="er attributeBoxOdd"/><text transform="translate(5,76.5)" style="dominant-baseline: middle; font-size: 10.2px;" y="0" x="0" id="text-entity-Ticket-d7e8b329-0aaa-5985-99a1-9a1fad0790bd-attr-3-type" class="er entityLabel">string</text><rect height="21" width="59.07440185546875" y="66" x="40.92559814453125" class="er attributeBoxOdd"/><text transform="translate(45.92559814453125,76.5)" style="dominant-baseline: middle; font-size: 10.2px;" y="0" x="0" id="text-entity-Ticket-d7e8b329-0aaa-5985-99a1-9a1fad0790bd-attr-3-name" class="er entityLabel">userId</text></g><g transform="translate(289.2193260192871,312 )" id="entity-Room-84e0ae07-3c50-5f6f-b167-b8f307304849"><rect height="66" width="100" y="0" x="0" class="er entityBox"/><text transform="translate(50,12)" style="dominant-baseline: middle; text-anchor: middle; font-size: 12px;" y="0" x="0" id="text-entity-Room-84e0ae07-3c50-5f6f-b167-b8f307304849" class="er entityLabel">Room</text><rect height="21" width="54.034706115722656" y="24" x="0" class="er attributeBoxOdd"/><text transform="translate(5,34.5)" style="dominant-baseline: middle; font-size: 10.2px;" y="0" x="0" id="text-entity-Room-84e0ae07-3c50-5f6f-b167-b8f307304849-attr-1-type" class="er entityLabel">int</text><rect height="21" width="45.965293884277344" y="24" x="54.034706115722656" class="er attributeBoxOdd"/><text transform="translate(59.034706115722656,34.5)" style="dominant-baseline: middle; font-size: 10.2px;" y="0" x="0" id="text-entity-Room-84e0ae07-3c50-5f6f-b167-b8f307304849-attr-1-name" class="er entityLabel">id</text><rect height="21" width="54.034706115722656" y="45" x="0" class="er attributeBoxEven"/><text transform="translate(5,55.5)" style="dominant-baseline: middle; font-size: 10.2px;" y="0" x="0" id="text-entity-Room-84e0ae07-3c50-5f6f-b167-b8f307304849-attr-2-type" class="er entityLabel">string</text><rect height="21" width="45.965293884277344" y="45" x="54.034706115722656" class="er attributeBoxEven"/><text transform="translate(59.034706115722656,55.5)" style="dominant-baseline: middle; font-size: 10.2px;" y="0" x="0" id="text-entity-Room-84e0ae07-3c50-5f6f-b167-b8f307304849-attr-2-name" class="er entityLabel">title</text></g><g transform="translate(489.2193260192871,291 )" id="entity-Movie-93b6ae32-1458-5e5b-9acc-4d229ba6aaf7"><rect height="108" width="110.79585266113281" y="0" x="0" class="er entityBox"/><text transform="translate(55.397926330566406,12)" style="dominant-baseline: middle; text-anchor: middle; font-size: 12px;" y="0" x="0" id="text-entity-Movie-93b6ae32-1458-5e5b-9acc-4d229ba6aaf7" class="er entityLabel">Movie</text><rect height="21" width="35.26939392089844" y="24" x="0" class="er attributeBoxOdd"/><text transform="translate(5,34.5)" style="dominant-baseline: middle; font-size: 10.2px;" y="0" x="0" id="text-entity-Movie-93b6ae32-1458-5e5b-9acc-4d229ba6aaf7-attr-1-type" class="er entityLabel">uuid</text><rect height="21" width="75.52645874023438" y="24" x="35.26939392089844" class="er attributeBoxOdd"/><text transform="translate(40.26939392089844,34.5)" style="dominant-baseline: middle; font-size: 10.2px;" y="0" x="0" id="text-entity-Movie-93b6ae32-1458-5e5b-9acc-4d229ba6aaf7-attr-1-name" class="er entityLabel">id</text><rect height="21" width="35.26939392089844" y="45" x="0" class="er attributeBoxEven"/><text transform="translate(5,55.5)" style="dominant-baseline: middle; font-size: 10.2px;" y="0" x="0" id="text-entity-Movie-93b6ae32-1458-5e5b-9acc-4d229ba6aaf7-attr-2-type" class="er entityLabel">string</text><rect height="21" width="75.52645874023438" y="45" x="35.26939392089844" class="er attributeBoxEven"/><text transform="translate(40.26939392089844,55.5)" style="dominant-baseline: middle; font-size: 10.2px;" y="0" x="0" id="text-entity-Movie-93b6ae32-1458-5e5b-9acc-4d229ba6aaf7-attr-2-name" class="er entityLabel">title</text><rect height="21" width="35.26939392089844" y="66" x="0" class="er attributeBoxOdd"/><text transform="translate(5,76.5)" style="dominant-baseline: middle; font-size: 10.2px;" y="0" x="0" id="text-entity-Movie-93b6ae32-1458-5e5b-9acc-4d229ba6aaf7-attr-3-type" class="er entityLabel">string</text><rect height="21" width="75.52645874023438" y="66" x="35.26939392089844" class="er attributeBoxOdd"/><text transform="translate(40.26939392089844,76.5)" style="dominant-baseline: middle; font-size: 10.2px;" y="0" x="0" id="text-entity-Movie-93b6ae32-1458-5e5b-9acc-4d229ba6aaf7-attr-3-name" class="er entityLabel">description</text><rect height="21" width="35.26939392089844" y="87" x="0" class="er attributeBoxEven"/><text transform="translate(5,97.5)" style="dominant-baseline: middle; font-size: 10.2px;" y="0" x="0" id="text-entity-Movie-93b6ae32-1458-5e5b-9acc-4d229ba6aaf7-attr-4-type" class="er entityLabel">int</text><rect height="21" width="75.52645874023438" y="87" x="35.26939392089844" class="er attributeBoxEven"/><text transform="translate(40.26939392089844,97.5)" style="dominant-baseline: middle; font-size: 10.2px;" y="0" x="0" id="text-entity-Movie-93b6ae32-1458-5e5b-9acc-4d229ba6aaf7-attr-4-name" class="er entityLabel">ageRestriction</text></g><g transform="translate(88.56972885131836,499 )" id="entity-User-818c511a-4a32-5484-ba70-875d765a9175"><rect height="150" width="101.2991943359375" y="0" x="0" class="er entityBox"/><text transform="translate(50.64959716796875,12)" style="dominant-baseline: middle; text-anchor: middle; font-size: 12px;" y="0" x="0" id="text-entity-User-818c511a-4a32-5484-ba70-875d765a9175" class="er entityLabel">User</text><rect height="21" width="45.61488342285156" y="24" x="0" class="er attributeBoxOdd"/><text transform="translate(5,34.5)" style="dominant-baseline: middle; font-size: 10.2px;" y="0" x="0" id="text-entity-User-818c511a-4a32-5484-ba70-875d765a9175-attr-1-type" class="er entityLabel">uuid</text><rect height="21" width="55.68431091308594" y="24" x="45.61488342285156" class="er attributeBoxOdd"/><text transform="translate(50.61488342285156,34.5)" style="dominant-baseline: middle; font-size: 10.2px;" y="0" x="0" id="text-entity-User-818c511a-4a32-5484-ba70-875d765a9175-attr-1-name" class="er entityLabel">id</text><rect height="21" width="45.61488342285156" y="45" x="0" class="er attributeBoxEven"/><text transform="translate(5,55.5)" style="dominant-baseline: middle; font-size: 10.2px;" y="0" x="0" id="text-entity-User-818c511a-4a32-5484-ba70-875d765a9175-attr-2-type" class="er entityLabel">string</text><rect height="21" width="55.68431091308594" y="45" x="45.61488342285156" class="er attributeBoxEven"/><text transform="translate(50.61488342285156,55.5)" style="dominant-baseline: middle; font-size: 10.2px;" y="0" x="0" id="text-entity-User-818c511a-4a32-5484-ba70-875d765a9175-attr-2-name" class="er entityLabel">username</text><rect height="21" width="45.61488342285156" y="66" x="0" class="er attributeBoxOdd"/><text transform="translate(5,76.5)" style="dominant-baseline: middle; font-size: 10.2px;" y="0" x="0" id="text-entity-User-818c511a-4a32-5484-ba70-875d765a9175-attr-3-type" class="er entityLabel">string</text><rect height="21" width="55.68431091308594" y="66" x="45.61488342285156" class="er attributeBoxOdd"/><text transform="translate(50.61488342285156,76.5)" style="dominant-baseline: middle; font-size: 10.2px;" y="0" x="0" id="text-entity-User-818c511a-4a32-5484-ba70-875d765a9175-attr-3-name" class="er entityLabel">password</text><rect height="21" width="45.61488342285156" y="87" x="0" class="er attributeBoxEven"/><text transform="translate(5,97.5)" style="dominant-baseline: middle; font-size: 10.2px;" y="0" x="0" id="text-entity-User-818c511a-4a32-5484-ba70-875d765a9175-attr-4-type" class="er entityLabel">string</text><rect height="21" width="55.68431091308594" y="87" x="45.61488342285156" class="er attributeBoxEven"/><text transform="translate(50.61488342285156,97.5)" style="dominant-baseline: middle; font-size: 10.2px;" y="0" x="0" id="text-entity-User-818c511a-4a32-5484-ba70-875d765a9175-attr-4-name" class="er entityLabel">name</text><rect height="21" width="45.61488342285156" y="108" x="0" class="er attributeBoxOdd"/><text transform="translate(5,118.5)" style="dominant-baseline: middle; font-size: 10.2px;" y="0" x="0" id="text-entity-User-818c511a-4a32-5484-ba70-875d765a9175-attr-5-type" class="er entityLabel">int</text><rect height="21" width="55.68431091308594" y="108" x="45.61488342285156" class="er attributeBoxOdd"/><text transform="translate(50.61488342285156,118.5)" style="dominant-baseline: middle; font-size: 10.2px;" y="0" x="0" id="text-entity-User-818c511a-4a32-5484-ba70-875d765a9175-attr-5-name" class="er entityLabel">age</text><rect height="21" width="45.61488342285156" y="129" x="0" class="er attributeBoxEven"/><text transform="translate(5,139.5)" style="dominant-baseline: middle; font-size: 10.2px;" y="0" x="0" id="text-entity-User-818c511a-4a32-5484-ba70-875d765a9175-attr-6-type" class="er entityLabel">varchar</text><rect height="21" width="55.68431091308594" y="129" x="45.61488342285156" class="er attributeBoxEven"/><text transform="translate(50.61488342285156,139.5)" style="dominant-baseline: middle; font-size: 10.2px;" y="0" x="0" id="text-entity-User-818c511a-4a32-5484-ba70-875d765a9175-attr-6-name" class="er entityLabel">role</text></g><rect height="14" width="35.015625" y="193.3373565673828" x="106.40208435058594" class="er relationshipLabelBox"/><text style="text-anchor: middle; dominant-baseline: middle; font-size: 12px;" y="200.3373565673828" x="123.90989685058594" id="rel33" class="er relationshipLabel">tickets</text><rect height="14.000015258789062" width="27.34375" y="245.42472076416016" x="252.37893676757812" class="er relationshipLabelBox"/><text style="text-anchor: middle; dominant-baseline: middle; font-size: 12px;" y="252.4247283935547" x="266.0508117675781" id="rel34" class="er relationshipLabel">room</text><rect height="14" width="32.3359375" y="214.6980743408203" x="412.0447082519531" class="er relationshipLabelBox"/><text style="text-anchor: middle; dominant-baseline: middle; font-size: 12px;" y="221.6980743408203" x="428.2126770019531" id="rel35" class="er relationshipLabel">movie</text><rect height="14" width="46.6875" y="191.6387939453125" x="446.82196044921875" class="er relationshipLabelBox"/><text style="text-anchor: middle; dominant-baseline: middle; font-size: 12px;" y="198.6387939453125" x="470.16571044921875" id="rel36" class="er relationshipLabel">sessions</text><rect height="14" width="46.6875" y="237.93423461914062" x="322.58721923828125" class="er relationshipLabelBox"/><text style="text-anchor: middle; dominant-baseline: middle; font-size: 12px;" y="244.93423461914062" x="345.93096923828125" id="rel37" class="er relationshipLabel">sessions</text><rect height="14" width="24.34765625" y="440.4274597167969" x="45.138729095458984" class="er relationshipLabelBox"/><text style="text-anchor: middle; dominant-baseline: middle; font-size: 12px;" y="447.4274597167969" x="57.312557220458984" id="rel38" class="er relationshipLabel">user</text><rect height="14" width="41.013671875" y="213.19874572753906" x="155.44088745117188" class="er relationshipLabelBox"/><text style="text-anchor: middle; dominant-baseline: middle; font-size: 12px;" y="220.19874572753906" x="175.94772338867188" id="rel39" class="er relationshipLabel">session</text><rect height="14" width="35.015625" y="436.75" x="121.711181640625" class="er relationshipLabelBox"/><text style="text-anchor: middle; dominant-baseline: middle; font-size: 12px;" y="443.75" x="139.218994140625" id="rel40" class="er relationshipLabel">tickets</text></svg>